<?xml version="1.0" standalone="no"?><!DOCTYPE svg PUBLIC "-//W3C//DTD SVG 1.1//EN" "http://www.w3.org/Graphics/SVG/1.1/DTD/svg11.dtd"><svg t="1592208571304" class="icon" viewBox="0 0 1024 1024" version="1.1" xmlns="http://www.w3.org/2000/svg" p-id="9232" xmlns:xlink="http://www.w3.org/1999/xlink" width="200" height="200"><defs><style type="text/css"></style></defs><path d="M971.4688 634.2144l-7.7824 77.5168h-54.272l-11.6736 65.9456-61.952-3.8912a794.37824 794.37824 0 0 0-7.7824-124.1088c-10.24-67.9936-73.3184-88.3712-131.1744-90.0096-139.0592 9.0112-147.968 113.2544-147.968 113.2544l-3.7888 104.7552-139.5712-3.8912s4.1984-27.8528-11.6736-112.4352c-23.7568-104.5504-71.5776-95.1296-137.3184-101.6832-97.5872 19.456-114.5856 70.656-114.5856 70.656l-27.136 143.4624H52.736s0-182.272 3.8912-263.68 155.0336-92.9792 193.8432-112.4352c32.256-16.1792 123.0848-139.0592 152.576-179.712v-8.9088h6.4512c1.7408-2.3552 3.7888-5.2224 3.7888-5.2224s166.6048-3.8912 271.2576-3.8912a172.50304 172.50304 0 0 1 56.32 9.1136h17.8176v7.3728c47.3088 24.1664 65.4336 71.4752 65.4336 115.4048 0 61.952 27.136 73.6256 62.0544 104.6528s11.5712 186.0608 11.5712 186.0608z m-541.184-354.0992l-64.9216 111.2064 175.5136 4.4032 6.0416-115.6096H430.2848z m317.2352 4.5056a29.21472 29.21472 0 0 0-7.9872-4.5056H607.3344l-4.1984 113.3568 157.7984 2.2528s8.8064-88.8832-13.4144-111.104z m-487.1168 355.4304a91.9552 91.9552 0 1 1-91.9552 91.9552 91.86304 91.86304 0 0 1 91.9552-91.9552z m426.7008 0a91.9552 91.9552 0 1 1-91.9552 91.9552 91.92448 91.92448 0 0 1 91.9552-91.9552z" p-id="9233"></path></svg>